<svg height="512" viewBox="0 0 55 60" width="512" xmlns="http://www.w3.org/2000/svg"><g id="Page-1" fill="none" fill-rule="evenodd"><g id="004---messgae" fill-rule="nonzero" transform="translate(0 -1)"><g id="color_copy" transform="translate(1 2)"><path id="Shape" d="m43.59 50h-41.18c-.79843686-.0036742-1.51859231-.480738-1.83337732-1.2145127-.314785-.7337747-.16419338-1.5843838.38337732-2.1654873 2.97389752-3.1734997 4.75510988-7.2801838 5.04-11.62v-11c-.00278974-6.7408789 3.97963426-12.8459545 10.15-15.56 2.1569848-.95537009 4.4909155-1.44600661 6.85-1.44.43 0 .86.02 1.28.05-2.8900306 4.6240361-3.0430597 10.4522093-.3996686 15.2215353 2.6433911 4.7693259 7.6667807 7.7284776 13.1196686 7.7284647 1.0075985.0022508 2.0127996-.0982693 3-.3v5.3c.2848901 4.3398162 2.0661025 8.4465003 5.04 11.62.5475707.5811035.6981623 1.4317126.3833773 2.1654873s-1.0349404 1.2108385-1.8333773 1.2145127z" fill="#e8edfc"/><path id="Shape" d="m45.04 46.62c-2.9738975-3.1734997-4.7551099-7.2801838-5.04-11.62v-5.3c-.9872004.2017307-1.9924015.3022508-3 .3v5c.2848901 4.3398162 2.0661025 8.4465003 5.04 11.62.5475707.5811035.6981623 1.4317126.3833773 2.1654873s-1.0349404 1.2108385-1.8333773 1.2145127h3c.7984369-.0036742 1.5185923-.480738 1.8333773-1.2145127s.1641934-1.5843838-.3833773-2.1654873z" fill="#cad9fc"/><path id="Shape" d="m19 15c.0027597 8.2831279 6.7168721 14.9972403 15 15 .514 0 1.0203333-.025 1.519-.075-5.1622534-.5125286-9.6932383-3.6560217-11.98084-8.3120311-2.2876018-4.6560095-2.0070483-10.1635191.74184-14.5629689-.42-.03-.85-.05-1.28-.05-.5824933.00100109-1.1645657.03137299-1.744.091-1.4768841 2.3734587-2.2584833 5.1135596-2.256 7.909z" fill="#cad9fc"/><path id="Shape" d="m10 47h-4c-.55228475 0-1-.4477153-1-1s.44771525-1 1-1h4c.5522847 0 1 .4477153 1 1s-.4477153 1-1 1z" fill="#e8edfc"/><path id="Shape" d="m40 47h-26c-.5522847 0-1-.4477153-1-1s.4477153-1 1-1h26c.5522847 0 1 .4477153 1 1s-.4477153 1-1 1z" fill="#e8edfc"/><path id="Shape" d="m10 25c-.55228475 0-1-.4477153-1-1-.0065679-4.253626 1.9293192-8.2774872 5.257-10.927.2779125-.2315358.6591983-.2949398.9970866-.1658055s.5796999.4306739.6323526.7885451c.0526527.3578713-.0920624.7162796-.3784392.9372604-2.852681 2.2713418-4.51265 5.7205276-4.508 9.367 0 .2652165-.1053568.5195704-.2928932.7071068s-.4418903.2928932-.7071068.2928932z" fill="#fff"/><path id="Shape" d="m31 50c0 4.418278-3.581722 8-8 8s-8-3.581722-8-8z" fill="#a4c2f7"/><path id="Shape" d="m28 50c-.0014956 3.8386987-2.7293818 7.1352442-6.5 7.855 2.3424542.452662 4.7646031-.1658212 6.6032741-1.6861118 1.8386711-1.5202906 2.9012199-3.7831023 2.8967401-6.1688882z" fill="#7facfa"/><path id="Shape" d="m28.48 2.66c-1.6820287 1.16476635-3.1107451 2.65811514-4.2 4.39-.42-.03-.85-.05-1.28-.05-2.3590845-.00600661-4.6930152.48462991-6.85 1.44-.1013897-.47324871-.1516778-.95601509-.15-1.44-.0032291-2.97912518 1.8815535-5.63311326 4.6953902-6.611643 2.8138366-.97852974 5.9386668-.06666662 7.7846098 2.271643z" fill="#cad9fc"/><path id="Shape" d="m23 0c-.5045041.00141871-1.0073936.05707183-1.5.166 1.5764662.34286137 2.983975 1.22485309 3.98 2.494-1.6820287 1.16476635-3.1107451 2.65811514-4.2 4.39-.42-.03-.85-.05-1.28-.05-1.3394679.00373249-2.6737734.16619888-3.975.484.0183963.3212793.0601735.64079158.125.956 2.1569848-.95537009 4.4909155-1.44600661 6.85-1.44.43 0 .86.02 1.28.05 1.0892549-1.73188486 2.5179713-3.22523365 4.2-4.39-1.3192358-1.68366748-3.3410532-2.66506059-5.48-2.66z" fill="#a4c2f7"/><path id="Shape" d="m52 15c-.0027597 8.2831279-6.7168721 14.9972403-15 15-1.9444539.0048854-3.8709287-.3722552-5.67-1.11l-7.37 2.46c-.3630766.118055-.7616899.0190752-1.0273699-.2551067-.2656801-.2741818-.3520592-.6757141-.2226301-1.0348933l2.23-6.14c-3.8733944-5.2372279-3.9239207-12.3757407-.1250487-17.66727281 3.7988721-5.29153208 10.5787085-7.52642273 16.7795762-5.53118328 6.2008677 1.99523944 10.4052291 7.76449105 10.4054725 14.27845609z" fill="#e8edfc"/><path id="Shape" d="m28.33 28.89-5.606 1.871c.1895562.4940184.732901.7529424 1.236.589l5.84-1.95c-.4987473-.1436542-.989449-.3138976-1.47-.51z" fill="#cad9fc"/><path id="Shape" d="m37 0c-.506 0-1.006.027-1.5.076 7.6632185.77411918 13.4947318 7.22635089 13.4924094 14.9285696-.0023224 7.7022186-5.8377255 14.1509326-13.5014094 14.9204304.5.049 1 .075 1.509.075 8.2842712-.0000001 14.9999998-6.7157288 14.9999998-15 0-8.28427116-6.7157286-14.99999988-14.9999998-15z" fill="#cad9fc"/><g fill="#fff"><circle id="Oval" cx="29" cy="15" r="2"/><circle id="Oval" cx="37" cy="15" r="2"/><circle id="Oval" cx="45" cy="15" r="2"/></g></g><g id="color" fill="#fff" transform="translate(1 2)"><path id="Shape" d="m2.41 50h3c-.79843686-.0036742-1.51859231-.480738-1.83337732-1.2145127-.314785-.7337747-.16419338-1.5843838.38337732-2.1654873 2.97389752-3.1734997 4.75510988-7.2801838 5.04-11.62v-11c-.00278974-6.7408789 3.9796343-12.8459545 10.15-15.56-.1013897-.47324871-.1516778-.95601509-.15-1.44-.0010512-3.2876526 2.2881498-6.13208889 5.5-6.834-.4925696-.10915052-.9954832-.1648063-1.5-.166-.2545872.00066127-.5089546.01501533-.762.043h-.024c-.2416157.02682762-.4816248.06655096-.719.119-3.2113282.70425846-5.4984459 3.55035691-5.495 6.838-.0016778.48398491.0486103.96675129.15 1.44-6.17036574 2.7140455-10.15278974 8.8191211-10.15 15.56v11c-.28489012 4.3398162-2.06610248 8.4465003-5.04 11.62-.5475707.5811035-.69816232 1.4317126-.38337732 2.1654873.31478501.7337747 1.03494046 1.2108385 1.83337732 1.2145127z"/></g><g id="Icons"><path id="Shape" d="m7.968 17.841 1.782.909c-1.1358083 2.2489405-1.73482059 4.7305628-1.75 7.25h-2c.01585596-2.835306.68952952-5.6282443 1.968-8.159z" fill="#fff"/><g fill="#428dff"><path id="Shape" d="m7.5 23.03c-.55228474.0030376-1.00246242-.4422153-1.00549999-.9945-.00303756-.5522847.44221525-1.0024624.99449999-1.0055h.011c.55228475 0 1 .4477153 1 1s-.44771525 1-1 1z"/><path id="Shape" d="m3.41 53h11.649c.5227105 4.5425323 4.3684924 7.9711565 8.941 7.9711565s8.4182895-3.4286242 8.941-7.9711565h11.649c1.1828216.0115793 2.257869-.6854294 2.73-1.77.4948455-1.1045593.2814461-2.3979488-.542-3.285-2.7918041-2.9982872-4.4772873-6.859236-4.778-10.945v-4.527c6.0916768-1.5575128 10.7045999-6.5413267 11.7873118-12.7350419 1.0827119-6.1937151-1.5658918-12.4469031-6.7679248-15.97864835-5.2020331-3.53174525-11.9912635-3.68605699-17.348387-.39430975-1.4946663-1.51993067-3.5392968-2.37261116-5.671-2.365-2.2735241-.00171553-4.4402279.96471198-5.9579591 2.65746326-1.5177312 1.69275129-2.242895 3.95167244-1.9940409 6.21153674-.4966052.241245-.9802646.5082758-1.449.8-.7032328.4307638-1.3788809.90502-2.023 1.42-.6299346.5327335-1.2260879 1.1041723-1.785 1.711-1.12731966 1.2071283-2.07777991 2.568007-2.823 4.042-.12838059.2386621-.15208985.5198627-.06548289.7766514.08660695.2567887.27578127.4661902.52248289.5783486.49023214.2228637 1.06931532.0279421 1.325-.446.661616-1.311196 1.5067858-2.5213714 2.51-3.594.496837-.53918 1.0265127-1.0471477 1.586-1.521.5735794-.4568395 1.1747143-.8779679 1.8-1.261 2.405873-1.4758578 5.1593407-2.2890295 7.981-2.357-2.537586 5.173463-2.0813013 11.3143744 1.193 16.056l-2.048 5.637c-.2250755.6123247-.1373594 1.2959409.235017 1.8316053s.9826066.8560459 1.634983.8583947c.2153109.0006518.4293428-.0331072.634-.1l7.024-2.347c2.4495986.9448655 5.0978982 1.2568145 7.7.907v4.139c.2750432 4.5910076 2.1504032 8.9404274 5.3 12.292.2857513.3032643.3610945.7486174.191 1.129-.1524203.3596872-.5094893.5894016-.9.579h-41.181c-.39051069.0104016-.74757971-.2193128-.9-.579-.1676002-.3779077-.09276664-.8194257.19-1.121 3.15087677-3.3539313 5.0262931-7.7063126 5.3-12.3v-11c0-.5522847-.44771525-1-1-1s-1 .4477153-1 1v11c-.29001903 4.0896766-1.97773941 7.9551918-4.78 10.948-.8222438.8865401-1.03485641 2.1787523-.54 3.282.472131 1.0845706 1.54717836 1.7815793 2.73 1.77zm14.59-44c.0033074-3.31233757 2.6876624-5.99669262 6-6 1.4753094-.00249914 2.8984647.54558144 3.991 1.537-1.2439841.99757566-2.3328692 2.17442087-3.231 3.492-.254-.011-.505-.029-.76-.029-2.0428889.02110589-4.0689662.37195495-6 1.039 0-.013 0-.026 0-.039zm14.71 20.965c-.2230012-.0912395-.4712734-.0997516-.7-.024l-7.36 2.459 2.23-6.14c.1148451-.3158242.0633764-.6682156-.137-.938-1.7912581-2.4038409-2.7538252-5.3241776-2.743-8.322 0-7.7319865 6.2680135-14 14-14s14 6.2680135 14 14-6.2680135 14-14 14c-1.8141395.0051942-3.6115871-.3464803-5.29-1.035zm-8.71 23.035h6.929c-.4946494 3.4465051-3.4471793 6.0055358-6.929 6.0055358s-6.4343506-2.5590307-6.929-6.0055358z"/><path id="Shape" d="m6 48c0 .5522847.44771525 1 1 1h4c.5522847 0 1-.4477153 1-1s-.4477153-1-1-1h-4c-.55228475 0-1 .4477153-1 1z"/><path id="Shape" d="m14 48c0 .5522847.4477153 1 1 1h26c.5522847 0 1-.4477153 1-1s-.4477153-1-1-1h-26c-.5522847 0-1 .4477153-1 1z"/><path id="Shape" d="m15.257 15.073c-3.3276808 2.6495128-5.2635679 6.673374-5.257 10.927 0 .5522847.4477153 1 1 1s1-.4477153 1-1c-.00465-3.6464724 1.655319-7.0956582 4.508-9.367.2863768-.2209808.4310919-.5793891.3784392-.9372604-.0526527-.3578712-.2944643-.6594108-.6323526-.7885451s-.7191741-.0657303-.9970866.1658055z"/><path id="Shape" d="m30 14c-1.6568542 0-3 1.3431458-3 3s1.3431458 3 3 3 3-1.3431458 3-3-1.3431458-3-3-3zm0 4c-.5522847 0-1-.4477153-1-1s.4477153-1 1-1 1 .4477153 1 1-.4477153 1-1 1z"/><path id="Shape" d="m38 14c-1.6568542 0-3 1.3431458-3 3s1.3431458 3 3 3 3-1.3431458 3-3-1.3431458-3-3-3zm0 4c-.5522847 0-1-.4477153-1-1s.4477153-1 1-1 1 .4477153 1 1-.4477153 1-1 1z"/><path id="Shape" d="m49 17c0-1.6568542-1.3431458-3-3-3s-3 1.3431458-3 3 1.3431458 3 3 3 3-1.3431458 3-3zm-3 1c-.5522847 0-1-.4477153-1-1s.4477153-1 1-1 1 .4477153 1 1-.4477153 1-1 1z"/></g></g></g></g></svg>