<?xml version="1.0" encoding="iso-8859-1"?>
<!-- Generator: Adobe Illustrator 19.0.0, SVG Export Plug-In . SVG Version: 6.00 Build 0)  -->
<svg version="1.1" id="Capa_1" xmlns="http://www.w3.org/2000/svg" xmlns:xlink="http://www.w3.org/1999/xlink" x="0px" y="0px"
	 viewBox="0 0 514.4 514.4" style="enable-background:new 0 0 514.4 514.4;" xml:space="preserve">
<g>
	<rect x="49.6" y="293.6" style="fill:#193651;" width="16" height="16"/>
	<rect x="49.6" y="340.8" style="fill:#193651;" width="16" height="16"/>
	<rect x="49.6" y="388.8" style="fill:#193651;" width="16" height="16"/>
</g>
<path style="fill:#FFFFFF;" d="M179.2,311.2c-1.6,16.8,0,34.4,4,51.2L152,385.6l23.2,44.8l36.8-12c11.2,13.6,24.8,24.8,39.2,33.6
	l-5.6,37.6l48,15.2l17.6-34.4c16.8,1.6,34.4,0,51.2-4l23.2,31.2l44.8-23.2l-12-36.8c13.6-11.2,24.8-24.8,32.8-39.2l38.4,5.6l15.2-48
	l-34.4-18.4c1.6-16.8,0-34.4-4-51.2l31.2-23.2l-24-44.8l-36.8,12c-11.2-13.6-24.8-24.8-39.2-33.6l5.6-38.4l-48-15.2l-17.6,35.2
	c-16.8-1.6-34.4,0-51.2,4l-23.2-31.2l-44.8,23.2l12,36.8c-13.6,11.2-24.8,24.8-32.8,39.2l-38.4-5.6l-15.2,48L179.2,311.2z"/>
<ellipse style="fill:#FDBF5E;" cx="324.21" cy="324.75" rx="116" ry="116"/>
<g>
	<path style="fill:#193651;" d="M292.8,366.4h-12v-59.2c0-10.4-8-18.4-18.4-18.4s-18.4,8-18.4,18.4v59.2h-12v-59.2
		c0-16.8,13.6-30.4,30.4-30.4s30.4,13.6,30.4,30.4V366.4z"/>
	<path style="fill:#193651;" d="M320.8,366.4h-12v-89.6h32c12.8,0,23.2,10.4,23.2,23.2v10.4c0,12.8-10.4,23.2-23.2,23.2h-20V366.4z
		 M320.8,321.6h20c6.4,0,11.2-4.8,11.2-11.2V300c0-6.4-4.8-11.2-11.2-11.2h-20V321.6z"/>
	<polygon style="fill:#193651;" points="411.2,288.8 411.2,276.8 376,276.8 376,288.8 388,288.8 388,360 376,360 376,372 411.2,372 
		411.2,360 400,360 400,288.8 	"/>
	<rect x="237.6" y="316" style="fill:#193651;" width="48.8" height="12"/>
</g>
<path style="fill:#FFFFFF;" d="M276.8,85.6c0-0.8,0-1.6,0-2.4c0-40.8-33.6-74.4-74.4-74.4c-28,0-52,15.2-64.8,37.6
	c-8.8-8-20.8-12.8-34.4-12.8c-28.8,0-52.8,24-52.8,52.8v0.8C25.6,96.8,8,121.6,8,150.4c0,37.6,30.4,67.2,67.2,67.2h182.4
	c37.6,0,67.2-30.4,67.2-67.2C326.4,120,305.6,93.6,276.8,85.6z"/>
<path style="fill:#193651;" d="M478.4,332.8c0.8-14.4,0-28.8-4-43.2l32-24l-29.6-56.8l-38.4,12.8c-9.6-11.2-20.8-20-33.6-28l6.4-40
	l-60.8-19.2l-17.6,36c-0.8,0-1.6,0-1.6,0c1.6-6.4,2.4-12.8,2.4-20c0-31.2-20-60-48.8-70.4c-1.6-44-37.6-79.2-82.4-79.2
	c-26.4,0-51.2,12.8-67.2,34.4c-9.6-5.6-20.8-8.8-32-8.8c-32,0-58.4,24.8-60.8,56C16,95.2,0,120.8,0,150.4
	c0,41.6,33.6,75.2,75.2,75.2h129.6c-4,5.6-8,10.4-12,16.8l-40-6.4l-18.4,61.6l36,17.6c-0.8,14.4,0,28.8,4,43.2l-32,24l29.6,56.8
	l38.4-12.8c9.6,11.2,20.8,20,33.6,28l-6.4,40l60.8,19.2l17.6-36c14.4,0.8,28.8-0.8,43.2-4l24,32L440,476l-12.8-38.4
	c11.2-9.6,20-20.8,28-33.6l40,6.4l19.2-61.6L478.4,332.8z M16.8,150.4c0-24.8,14.4-46.4,37.6-55.2l4.8-3.2v-5.6
	c0-24.8,20-44.8,44.8-44.8c10.4,0,20.8,4,28.8,10.4l7.2,6.4l5.6-8c12-20.8,33.6-33.6,57.6-33.6c36.8,0,66.4,29.6,66.4,66.4V92
	l5.6,1.6c25.6,7.2,43.2,31.2,43.2,57.6c0,32.8-26.4,59.2-59.2,59.2H76C43.2,210.4,16.8,183.2,16.8,150.4z M484,394.4l-36.8-5.6
	l-3.2,4.8c-8,14.4-18.4,27.2-31.2,37.6l-4,3.2l12,35.2L388,486.4L365.6,456l-5.6,1.6c-16,4-32,5.6-48.8,4l-5.6-0.8l-16,34.4
	L254.4,484l5.6-36.8l-4.8-2.4c-14.4-8-26.4-18.4-37.6-31.2l-3.2-4l-35.2,12l-16.8-32.8l30.4-22.4l-1.6-5.6c-4-16-5.6-32-4-48.8
	l0.8-5.6l-34.4-16.8l11.2-35.2l36.8,5.6l2.4-4.8c6.4-10.4,13.6-20.8,22.4-28.8h31.2c28.8,0,53.6-16,66.4-40c4,0,8,0,12,0.8l5.6,0.8
	l16.8-33.6l35.2,11.2l-4.8,36l4.8,2.4c14.4,8,26.4,18.4,37.6,31.2l3.2,4l35.2-12l16.8,32.8L456,282.4l1.6,5.6c4,16,5.6,32,4,48.8
	l-0.8,5.6l33.6,16.8L484,394.4z"/>
<polygon style="fill:#2EA2DB;" points="195.2,154.4 236,154.4 236,113.6 224,125.6 176,76.8 159.2,93.6 208,142.4 "/>
<polygon style="fill:#F16051;" points="134.4,100.8 93.6,100.8 93.6,141.6 106.4,129.6 154.4,178.4 171.2,161.6 122.4,112.8 "/>
<g>
</g>
<g>
</g>
<g>
</g>
<g>
</g>
<g>
</g>
<g>
</g>
<g>
</g>
<g>
</g>
<g>
</g>
<g>
</g>
<g>
</g>
<g>
</g>
<g>
</g>
<g>
</g>
<g>
</g>
</svg>
