<?xml version="1.0" encoding="utf-8"?>
<!-- Generator: Adobe Illustrator 16.0.0, SVG Export Plug-In . SVG Version: 6.00 Build 0)  -->
<!DOCTYPE svg PUBLIC "-//W3C//DTD SVG 1.1//EN" "http://www.w3.org/Graphics/SVG/1.1/DTD/svg11.dtd">
<svg version="1.1" id="Layer_1" xmlns="http://www.w3.org/2000/svg" xmlns:xlink="http://www.w3.org/1999/xlink" x="0px" y="0px"
	 width="1280px" height="800px" viewBox="0 0 1280 800" enable-background="new 0 0 1280 800" xml:space="preserve">
<rect x="-1" y="1" fill="#669EB2" width="1280" height="800"/>
<g opacity="0.04">
	<path d="M-626.135,2294.721l120.108,178.325c11.894,17.631,37.829,26.126,63.903,21.099l332.032-64.476
		c26.109-5.045,46.844-22.572,51.23-43.411l44.538-214.524c-94.936,48.092-197.847,84.188-307.484,105.338
		C-424.509,2296.783-526.536,2301.88-626.135,2294.721z"/>
	<g>
		<path d="M-1865.207,1357.082l39.111,197.916c5.235,25.9,22.815,46.739,43.567,51.021l183.907,37.586
			c47.156,97.294,107.141,186.041,177.146,264.957l-37.828,188.242c-4.196,20.665,8.096,45.093,30.131,59.933l280.161,189.577
			c21.948,14.771,49.185,17.111,66.989,5.651l167.212-108.406c189.854,63.591,398.45,79.662,608.675,36.217
			c202.562-41.852,381.893-133.771,528.11-259.964l213.138,41.66c20.838,3.987,45.23-8.356,60.055-30.288l189.246-280.386
			c14.857-22.088,17.199-49.219,5.514-66.885l-120.316-183.579c28.727-86.354,47.605-176.505,55.494-268.962l190.982-126.246
			c17.805-11.771,26.316-37.533,21.445-63.573l-63.02-332.396c-4.941-26.075-22.521-47.034-43.289-51.629l-224.441-48.612
			c-40.898-82.35-90.931-158.561-148.542-227.683l44.451-221.286c4.127-20.839-8.113-45.093-30.183-60.037L92.402-89.666
			c-22.035-14.875-49.185-17.129-66.989-5.617L-157.94,23.56C-281.066-19.418-412.322-42.32-547.01-41.765
			c387.926,63.695,715.035,359.148,799.326,767.08c109.29,528.943-230.855,1046.34-759.799,1155.613
			c-528.926,109.308-1017.439-237.651-1155.543-759.816L-1865.207,1357.082z"/>
	</g>
	<path d="M-1300.62,880.773c-2.618,229.156,186.456,361.332,364.244,408.626c51.49,13.696,103.639,19.591,154.955,17.476
		c216.865-8.895,395.121-157.955,454.118-379.778c36.719-137.966,21.168-277.388-43.706-392.485
		c-64.215-113.902-171.911-195.836-303.149-230.752c-55.027-14.649-110.435-20.977-164.699-18.74
		c-84.36,3.449-200.014,29.576-299.075,128.205l488.981,130.111c21.585,5.721,34.466,27.895,28.71,49.461l-55.963,210.226
		c-5.738,21.567-27.843,34.379-49.444,28.675l-792.687-210.884c-17.666,66.278-26.092,135.643-24.375,206.394l204.174,12.656
		C-1317.055,841.297-1300.36,859.224-1300.62,880.773z"/>
</g>
<path opacity="0.04" d="M413.564-42.285l123.664,84.187c0.139,1.751,0.174,3.589,0.346,5.357
	c4.039,41.972,12.102,83.146,23.578,122.969c0.52,1.682,1.162,3.38,1.631,5.062l-84.291,126.835
	c-7.039,10.506-5.826,26.769,2.773,39.961l109.896,168.339c8.617,13.177,22.92,20.701,35.246,18.395l148.922-28.154
	c1.369,1.127,2.635,2.393,3.988,3.52c30.738,25.467,63.781,48.404,99.078,68.254c1.51,0.815,3.121,1.509,4.629,2.341l30.219,151.8
	c2.514,12.414,14.736,23.006,30.078,26.127l195.906,39.822c15.342,3.139,30.686-1.785,37.793-12.223l84.533-125.465
	c1.734-0.088,3.502-0.139,5.271-0.295c41.938-3.936,83.061-11.963,122.918-23.509c1.768-0.521,3.484-1.214,5.234-1.716
	l125.449,83.787c10.436,6.953,26.543,5.704,39.631-3.051l166.971-111.839c13.123-8.772,20.543-23.249,18.221-35.696l-27.15-145.594
	c1.145-1.283,2.41-2.549,3.502-3.9c27.428-33.044,51.959-68.914,72.971-107.245c0.85-1.561,1.543-3.173,2.41-4.733l148.559-29.438
	c12.344-2.41,22.918-14.736,26.127-30.201l41.156-197.916c3.189-15.482-1.646-31.016-11.945-38.279l-124.32-86.944
	c-0.139-1.786-0.156-3.537-0.33-5.305c-3.936-43.064-12.014-85.227-23.77-126.021c-0.484-1.768-1.127-3.467-1.664-5.149
	l83.807-126.055c6.986-10.523,5.824-26.733-2.791-39.996l-109.881-168.253c-8.582-13.193-22.918-20.734-35.279-18.429
	l-147.502,27.843c-1.387-1.11-2.635-2.375-4.021-3.589c-33.148-27.513-69.053-52.08-107.521-73.04
	c-1.543-0.884-3.191-1.56-4.717-2.358l-28.467-147.379c-2.428-12.431-14.615-23.058-30.027-26.057l-195.766-40.169
	c-15.395-3.155-30.756,1.873-37.967,12.292l-85.922,125.899c-1.732,0.208-3.641,0.208-5.373,0.364
	c-28.295,2.999-56.119,7.905-83.459,14.441c39.908-4.195,80.857-4.178,122.432,1.733c273.398,38.782,463.549,291.916,424.68,565.264
	c-38.799,273.435-291.898,463.618-565.332,424.749C764.337,270.262,574.188,17.18,612.989-256.237
	c8.928-62.863,29.609-120.993,58.822-173.229c-20.059,26.664-38.816,54.559-54.957,84.395c-0.85,1.595-1.543,3.294-2.428,4.907
	l-147.535,30.998c-12.273,2.653-22.797,15.066-25.9,30.565L401.376-80.426C398.256-64.84,403.145-49.411,413.564-42.285z"/>
</svg>
