<?xml version="1.0" encoding="utf-8"?>
<!-- Generator: Adobe Illustrator 18.1.1, SVG Export Plug-In . SVG Version: 6.00 Build 0)  -->
<svg version="1.1" id="Layer_1" xmlns="http://www.w3.org/2000/svg" xmlns:xlink="http://www.w3.org/1999/xlink" x="0px" y="0px"
	 viewBox="160 -120 1280 800" enable-background="new 160 -120 1280 800" xml:space="preserve">
<rect x="159" y="-119" width="1280" height="800"/>
<g opacity="0.1">
	<path fill="#FFFFFF" d="M-466.1,2174.7L-346,2353c11.9,17.6,37.8,26.1,63.9,21.1l332-64.5c26.1-5,46.8-22.6,51.2-43.4l44.5-214.5
		c-94.9,48.1-197.8,84.2-307.5,105.3C-264.5,2176.8-366.5,2181.9-466.1,2174.7z"/>
	<g>
		<path fill="#FFFFFF" d="M-1705.2,1237.1l39.1,197.9c5.2,25.9,22.8,46.7,43.6,51l183.9,37.6c47.2,97.3,107.1,186,177.1,265
			l-37.8,188.2c-4.2,20.7,8.1,45.1,30.1,59.9l280.2,189.6c21.9,14.8,49.2,17.1,67,5.7l167.2-108.4c189.9,63.6,398.5,79.7,608.7,36.2
			c202.6-41.9,381.9-133.8,528.1-260l213.1,41.7c20.8,4,45.2-8.4,60.1-30.3l189.2-280.4c14.9-22.1,17.2-49.2,5.5-66.9l-120.3-183.6
			c28.7-86.4,47.6-176.5,55.5-269l191-126.2c17.8-11.8,26.3-37.5,21.4-63.6l-63-332.4c-4.9-26.1-22.5-47-43.3-51.6l-224.4-48.6
			c-40.9-82.3-90.9-158.6-148.5-227.7l44.5-221.3c4.1-20.8-8.1-45.1-30.2-60L252.4-209.7c-22-14.9-49.2-17.1-67-5.6L2.1-96.4
			c-123.1-43-254.4-65.9-389.1-65.3C0.9-98.1,328,197.4,412.3,605.3c109.3,528.9-230.9,1046.3-759.8,1155.6
			c-528.9,109.3-1017.4-237.7-1155.5-759.8L-1705.2,1237.1z"/>
	</g>
	<path fill="#FFFFFF" d="M-1140.6,760.8c-2.6,229.2,186.5,361.3,364.2,408.6c51.5,13.7,103.6,19.6,155,17.5
		c216.9-8.9,395.1-158,454.1-379.8c36.7-138,21.2-277.4-43.7-392.5c-64.2-113.9-171.9-195.8-303.1-230.8
		c-55-14.6-110.4-21-164.7-18.7c-84.4,3.4-200,29.6-299.1,128.2l489,130.1c21.6,5.7,34.5,27.9,28.7,49.5l-56,210.2
		c-5.7,21.6-27.8,34.4-49.4,28.7l-792.7-210.9c-17.7,66.3-26.1,135.6-24.4,206.4l204.2,12.7
		C-1157.1,721.3-1140.4,739.2-1140.6,760.8z"/>
</g>
<path opacity="0.1" fill="#FFFFFF" enable-background="new    " d="M573.6-162.3l123.7,84.2c0.1,1.8,0.2,3.6,0.3,5.4
	c4,42,12.1,83.1,23.6,123c0.5,1.7,1.2,3.4,1.6,5.1l-84.3,126.8c-7,10.5-5.8,26.8,2.8,40l109.9,168.3c8.6,13.2,22.9,20.7,35.2,18.4
	l148.9-28.2c1.4,1.1,2.6,2.4,4,3.5c30.7,25.5,63.8,48.4,99.1,68.3c1.5,0.8,3.1,1.5,4.6,2.3l30.2,151.8c2.5,12.4,14.7,23,30.1,26.1
	l195.9,39.8c15.3,3.1,30.7-1.8,37.8-12.2l84.5-125.5c1.7-0.1,3.5-0.1,5.3-0.3c41.9-3.9,83.1-12,122.9-23.5c1.8-0.5,3.5-1.2,5.2-1.7
	l125.4,83.8c10.4,7,26.5,5.7,39.6-3.1l167-111.8c13.1-8.8,20.5-23.2,18.2-35.7l-27.2-145.6c1.1-1.3,2.4-2.5,3.5-3.9
	c27.4-33,52-68.9,73-107.2c0.8-1.6,1.5-3.2,2.4-4.7l148.6-29.4c12.3-2.4,22.9-14.7,26.1-30.2l41.2-197.9c3.2-15.5-1.6-31-11.9-38.3
	l-124.3-86.9c-0.1-1.8-0.2-3.5-0.3-5.3c-3.9-43.1-12-85.2-23.8-126c-0.5-1.8-1.1-3.5-1.7-5.1l83.8-126.1c7-10.5,5.8-26.7-2.8-40
	l-109.9-168.3c-8.6-13.2-22.9-20.7-35.3-18.4l-147.5,27.8c-1.4-1.1-2.6-2.4-4-3.6c-33.1-27.5-69.1-52.1-107.5-73
	c-1.5-0.9-3.2-1.6-4.7-2.4l-28.5-147.4c-2.4-12.4-14.6-23.1-30-26.1l-195.8-40.2c-15.4-3.2-30.8,1.9-38,12.3l-85.9,125.9
	c-1.7,0.2-3.6,0.2-5.4,0.4c-28.3,3-56.1,7.9-83.5,14.4c39.9-4.2,80.9-4.2,122.4,1.7c273.4,38.8,463.5,291.9,424.7,565.3
	c-38.8,273.4-291.9,463.6-565.3,424.7C924.3,150.3,734.2-102.8,773-376.2c8.9-62.9,29.6-121,58.8-173.2
	c-20.1,26.7-38.8,54.6-55,84.4c-0.8,1.6-1.5,3.3-2.4,4.9l-147.5,31c-12.3,2.7-22.8,15.1-25.9,30.6l-39.6,198.2
	C558.3-184.8,563.1-169.4,573.6-162.3z"/>
</svg>
