<?xml version="1.0" encoding="utf-8"?>
<svg id="Layer_1" x="0px" y="0px" viewBox="-341.5 276.4 202.2 8.8" xmlns="http://www.w3.org/2000/svg">
  <g>
    <path fill="#FFFFFF" d="M-254,276.5v5.5c0,1-0.3,1.7-0.9,2.3c-0.6,0.6-1.4,0.8-2.4,0.8c-1,0-1.8-0.3-2.4-0.8&#10;&#9;&#9;c-0.6-0.6-0.8-1.3-0.8-2.3v-5.5h1v5.6c0,0.7,0.2,1.3,0.6,1.6c0.4,0.4,1,0.6,1.7,0.6c0.7,0,1.3-0.2,1.7-0.6c0.4-0.4,0.6-0.9,0.6-1.7&#10;&#9;&#9;v-5.6H-254z"/>
    <path fill="#FFFFFF" d="M-245,285.1h-1.1l-4.7-7.2h0c0.1,0.8,0.1,1.6,0.1,2.3v4.9h-0.9v-8.6h1.1l4.7,7.2h0c0-0.1,0-0.4-0.1-1&#10;&#9;&#9;s0-1,0-1.2v-4.9h0.9V285.1z"/>
    <path fill="#FFFFFF" d="M-242.6,285.1v-8.6h1v8.6H-242.6z"/>
    <path fill="#FFFFFF" d="M-238.3,285.1h-1v-8.6h4.8v0.9h-3.8v3.1h3.6v0.9h-3.6V285.1z"/>
    <path fill="#FFFFFF" d="M-233.1,285.1v-8.6h1v8.6H-233.1z"/>
    <path fill="#FFFFFF" d="M-225,285.1h-4.8v-8.6h4.8v0.9h-3.8v2.8h3.6v0.9h-3.6v3.2h3.8V285.1z"/>
    <path fill="#FFFFFF" d="M-216.2,280.8c0,1.4-0.4,2.5-1.2,3.2c-0.8,0.7-1.9,1.1-3.3,1.1h-2.4v-8.6h2.6c1.3,0,2.4,0.4,3.1,1.1&#10;&#9;&#9;C-216.6,278.4-216.2,279.4-216.2,280.8z M-217.3,280.8c0-1.1-0.3-2-0.8-2.5c-0.6-0.6-1.4-0.9-2.5-0.9h-1.4v6.8h1.2&#10;&#9;&#9;c1.2,0,2.1-0.3,2.7-0.9C-217.6,282.8-217.3,281.9-217.3,280.8z"/>
    <path fill="#FFFFFF" d="M-208.9,279c0,0.9-0.3,1.5-0.9,2s-1.4,0.7-2.5,0.7h-1v3.4h-1v-8.6h2.2C-210,276.5-208.9,277.4-208.9,279z&#10;&#9;&#9; M-213.3,280.9h0.9c0.9,0,1.5-0.1,1.9-0.4c0.4-0.3,0.6-0.7,0.6-1.4c0-0.6-0.2-1-0.6-1.3c-0.4-0.3-0.9-0.4-1.7-0.4h-1.1&#10;&#9;&#9;L-213.3,280.9L-213.3,280.9z"/>
    <path fill="#FFFFFF" d="M-200.6,276.5v5.5c0,1-0.3,1.7-0.9,2.3c-0.6,0.6-1.4,0.8-2.4,0.8s-1.8-0.3-2.4-0.8&#10;&#9;&#9;c-0.6-0.6-0.8-1.3-0.8-2.3v-5.5h1v5.6c0,0.7,0.2,1.3,0.6,1.6c0.4,0.4,1,0.6,1.7,0.6c0.7,0,1.3-0.2,1.7-0.6c0.4-0.4,0.6-0.9,0.6-1.7&#10;&#9;&#9;v-5.6H-200.6z"/>
    <path fill="#FFFFFF" d="M-193.5,282.8c0,0.8-0.3,1.3-0.8,1.8s-1.3,0.6-2.2,0.6c-1,0-1.8-0.1-2.3-0.4v-1c0.4,0.1,0.7,0.3,1.1,0.4&#10;&#9;&#9;s0.8,0.1,1.2,0.1c0.7,0,1.2-0.1,1.5-0.4s0.5-0.6,0.5-1.1c0-0.3-0.1-0.5-0.2-0.7s-0.3-0.4-0.6-0.5s-0.7-0.3-1.3-0.5&#10;&#9;&#9;c-0.8-0.3-1.4-0.6-1.7-1c-0.3-0.4-0.5-0.9-0.5-1.5c0-0.7,0.2-1.2,0.7-1.6c0.5-0.4,1.2-0.6,2-0.6c0.9,0,1.6,0.2,2.4,0.5l-0.3,0.9&#10;&#9;&#9;c-0.7-0.3-1.4-0.4-2.1-0.4c-0.5,0-0.9,0.1-1.2,0.3s-0.4,0.5-0.4,0.9c0,0.3,0.1,0.5,0.2,0.7s0.3,0.4,0.6,0.5&#10;&#9;&#9;c0.3,0.2,0.7,0.3,1.2,0.5c0.9,0.3,1.5,0.7,1.9,1C-193.7,281.8-193.5,282.2-193.5,282.8z"/>
    <path fill="#FFFFFF" d="M-185.3,285.1h-1v-4h-4.5v4h-1v-8.6h1v3.6h4.5v-3.6h1V285.1z"/>
    <path fill="#FFFFFF" d="M-175,282.8c0,0.8-0.3,1.3-0.8,1.8s-1.3,0.6-2.2,0.6c-1,0-1.8-0.1-2.3-0.4v-1c0.4,0.1,0.7,0.3,1.1,0.4&#10;&#9;&#9;s0.8,0.1,1.2,0.1c0.7,0,1.2-0.1,1.5-0.4s0.5-0.6,0.5-1.1c0-0.3-0.1-0.5-0.2-0.7s-0.3-0.4-0.6-0.5s-0.7-0.3-1.3-0.5&#10;&#9;&#9;c-0.8-0.3-1.4-0.6-1.7-1c-0.3-0.4-0.5-0.9-0.5-1.5c0-0.7,0.2-1.2,0.7-1.6c0.5-0.4,1.2-0.6,2-0.6c0.9,0,1.6,0.2,2.4,0.5l-0.3,0.9&#10;&#9;&#9;c-0.7-0.3-1.4-0.4-2.1-0.4c-0.5,0-0.9,0.1-1.2,0.3s-0.4,0.5-0.4,0.9c0,0.3,0.1,0.5,0.2,0.7s0.3,0.4,0.6,0.5&#10;&#9;&#9;c0.3,0.2,0.7,0.3,1.2,0.5c0.9,0.3,1.5,0.7,1.9,1C-175.1,281.8-175,282.2-175,282.8z"/>
    <path fill="#FFFFFF" d="M-168.5,285.1h-4.8v-8.6h4.8v0.9h-3.8v2.8h3.6v0.9h-3.6v3.2h3.8V285.1z"/>
    <path fill="#FFFFFF" d="M-165.6,281.6v3.6h-1v-8.6h2.4c1.1,0,1.8,0.2,2.3,0.6c0.5,0.4,0.8,1,0.8,1.8c0,1.1-0.6,1.9-1.7,2.3l2.3,3.9&#10;&#9;&#9;h-1.2l-2.1-3.6L-165.6,281.6L-165.6,281.6z M-165.6,280.7h1.4c0.7,0,1.2-0.1,1.5-0.4c0.3-0.3,0.5-0.7,0.5-1.3c0-0.6-0.2-1-0.5-1.2&#10;&#9;&#9;s-0.9-0.4-1.6-0.4h-1.3L-165.6,280.7L-165.6,280.7z"/>
    <path fill="#FFFFFF" d="M-154.2,276.5h1.1l-3.1,8.6h-1l-3.1-8.6h1.1l2,5.5c0.2,0.6,0.4,1.3,0.5,1.9c0.1-0.6,0.3-1.3,0.6-1.9&#10;&#9;&#9;L-154.2,276.5z"/>
    <path fill="#FFFFFF" d="M-147.2,285.1h-4.8v-8.6h4.8v0.9h-3.8v2.8h3.6v0.9h-3.6v3.2h3.8V285.1z"/>
    <path fill="#FFFFFF" d="M-144.3,281.6v3.6h-1v-8.6h2.4c1.1,0,1.8,0.2,2.3,0.6c0.5,0.4,0.8,1,0.8,1.8c0,1.1-0.6,1.9-1.7,2.3l2.3,3.9&#10;&#9;&#9;h-1.2l-2.1-3.6L-144.3,281.6L-144.3,281.6z M-144.3,280.7h1.4c0.7,0,1.2-0.1,1.5-0.4c0.3-0.3,0.5-0.7,0.5-1.3c0-0.6-0.2-1-0.5-1.2&#10;&#9;&#9;s-0.9-0.4-1.6-0.4h-1.3L-144.3,280.7L-144.3,280.7z"/>
  </g>
  <path d="M -335.592 276.861 L -338.682 276.861 L -341.692 285.121 L -338.982 285.121 L -338.632 283.951 L -335.742 283.951 L -335.392 285.121 L -332.582 285.121 L -335.592 276.861 M -337.152 279.171 L -336.292 282.111 L -338.082 282.111 L -337.202 279.171 L -337.152 279.171 ZM -323.784 285.121 L -323.784 283.141 L -328.354 283.141 L -328.354 281.881 L -324.514 281.881 L -324.514 279.981 L -328.354 279.981 L -328.354 278.841 L -323.864 278.841 L -323.864 276.861 L -331.004 276.861 L -331.004 285.121 L -323.784 285.121 ZM -313.923 279.401 C -313.923 279.061 -313.98 278.738 -314.093 278.431 C -314.213 278.131 -314.39 277.864 -314.623 277.631 C -314.856 277.398 -315.146 277.211 -315.493 277.071 C -315.84 276.931 -316.243 276.861 -316.703 276.861 L -321.753 276.861 L -321.753 285.121 L -319.103 285.121 L -319.103 282.111 L -318.123 282.111 L -316.653 285.121 L -313.683 285.121 L -315.513 281.661 C -315.246 281.568 -315.013 281.441 -314.813 281.281 C -314.613 281.121 -314.446 280.941 -314.313 280.741 C -314.18 280.541 -314.08 280.328 -314.013 280.101 C -313.953 279.874 -313.923 279.641 -313.923 279.401 M -316.623 279.511 C -316.623 279.618 -316.643 279.718 -316.683 279.811 C -316.716 279.904 -316.77 279.984 -316.843 280.051 C -316.91 280.124 -316.986 280.181 -317.073 280.221 C -317.166 280.254 -317.263 280.271 -317.363 280.271 L -319.103 280.271 L -319.103 278.751 L -317.363 278.751 C -317.263 278.751 -317.166 278.771 -317.073 278.811 C -316.986 278.844 -316.91 278.894 -316.843 278.961 C -316.77 279.028 -316.716 279.108 -316.683 279.201 C -316.643 279.294 -316.623 279.398 -316.623 279.511 ZM -307.94 276.721 C -308.64 276.721 -309.267 276.811 -309.82 276.991 C -310.374 277.171 -310.84 277.441 -311.22 277.801 C -311.6 278.154 -311.89 278.598 -312.09 279.131 C -312.29 279.664 -312.39 280.284 -312.39 280.991 C -312.39 281.698 -312.29 282.318 -312.09 282.851 C -311.89 283.384 -311.6 283.831 -311.22 284.191 C -310.84 284.544 -310.374 284.811 -309.82 284.991 C -309.267 285.178 -308.64 285.271 -307.94 285.271 C -307.234 285.271 -306.604 285.178 -306.05 284.991 C -305.497 284.811 -305.03 284.544 -304.65 284.191 C -304.27 283.831 -303.977 283.384 -303.77 282.851 C -303.57 282.318 -303.47 281.698 -303.47 280.991 C -303.47 280.284 -303.57 279.664 -303.77 279.131 C -303.977 278.598 -304.27 278.154 -304.65 277.801 C -305.03 277.441 -305.497 277.171 -306.05 276.991 C -306.604 276.811 -307.234 276.721 -307.94 276.721 M -307.94 278.701 C -307.647 278.701 -307.39 278.748 -307.17 278.841 C -306.95 278.934 -306.767 279.064 -306.62 279.231 C -306.474 279.398 -306.364 279.598 -306.29 279.831 C -306.224 280.071 -306.19 280.331 -306.19 280.611 L -306.19 281.381 C -306.19 281.661 -306.224 281.918 -306.29 282.151 C -306.364 282.384 -306.474 282.584 -306.62 282.751 C -306.767 282.918 -306.95 283.051 -307.17 283.151 C -307.39 283.244 -307.647 283.291 -307.94 283.291 C -308.234 283.291 -308.487 283.244 -308.7 283.151 C -308.92 283.051 -309.1 282.918 -309.24 282.751 C -309.387 282.584 -309.497 282.384 -309.57 282.151 C -309.644 281.918 -309.68 281.661 -309.68 281.381 L -309.68 280.611 C -309.68 280.331 -309.644 280.071 -309.57 279.831 C -309.497 279.598 -309.387 279.398 -309.24 279.231 C -309.1 279.064 -308.92 278.934 -308.7 278.841 C -308.487 278.748 -308.234 278.701 -307.94 278.701 ZM -301.461 276.861 L -301.461 285.121 L -295.891 285.121 C -295.558 285.121 -295.248 285.068 -294.961 284.961 C -294.668 284.854 -294.415 284.708 -294.201 284.521 C -293.981 284.328 -293.808 284.094 -293.681 283.821 C -293.561 283.548 -293.501 283.248 -293.501 282.921 C -293.501 282.594 -293.541 282.311 -293.621 282.071 C -293.708 281.838 -293.821 281.638 -293.961 281.471 C -294.108 281.304 -294.275 281.174 -294.461 281.081 C -294.648 280.981 -294.851 280.908 -295.071 280.861 L -295.071 280.811 C -294.885 280.758 -294.708 280.684 -294.541 280.591 C -294.375 280.498 -294.228 280.374 -294.101 280.221 C -293.975 280.068 -293.875 279.884 -293.801 279.671 C -293.721 279.451 -293.681 279.191 -293.681 278.891 C -293.681 278.598 -293.745 278.324 -293.871 278.071 C -293.991 277.824 -294.155 277.611 -294.361 277.431 C -294.568 277.251 -294.808 277.111 -295.081 277.011 C -295.355 276.911 -295.648 276.861 -295.961 276.861 L -301.461 276.861 M -296.801 281.791 C -296.715 281.791 -296.631 281.808 -296.551 281.841 C -296.478 281.874 -296.415 281.918 -296.361 281.971 C -296.301 282.031 -296.258 282.101 -296.231 282.181 C -296.198 282.261 -296.181 282.344 -296.181 282.431 L -296.181 282.551 C -296.181 282.644 -296.198 282.731 -296.231 282.811 C -296.258 282.891 -296.301 282.958 -296.361 283.011 C -296.415 283.071 -296.478 283.118 -296.551 283.151 C -296.631 283.184 -296.715 283.201 -296.801 283.201 L -298.811 283.201 L -298.811 281.791 L -296.801 281.791 M -296.991 278.671 C -296.905 278.671 -296.825 278.688 -296.751 278.721 C -296.678 278.754 -296.615 278.801 -296.561 278.861 C -296.501 278.921 -296.455 278.991 -296.421 279.071 C -296.388 279.144 -296.371 279.224 -296.371 279.311 L -296.371 279.431 C -296.371 279.524 -296.388 279.611 -296.421 279.691 C -296.455 279.771 -296.498 279.838 -296.551 279.891 C -296.605 279.951 -296.671 279.998 -296.751 280.031 C -296.825 280.064 -296.905 280.081 -296.991 280.081 L -298.811 280.081 L -298.811 278.671 L -296.991 278.671 ZM -286.419 276.861 L -289.509 276.861 L -292.519 285.121 L -289.809 285.121 L -289.459 283.951 L -286.569 283.951 L -286.219 285.121 L -283.409 285.121 L -286.419 276.861 M -287.979 279.171 L -287.119 282.111 L -288.909 282.111 L -288.029 279.171 L -287.979 279.171 ZM -278.371 276.721 C -278.857 276.721 -279.324 276.768 -279.771 276.861 C -280.217 276.954 -280.611 277.108 -280.951 277.321 C -281.291 277.528 -281.561 277.801 -281.761 278.141 C -281.967 278.474 -282.071 278.881 -282.071 279.361 C -282.071 279.761 -282.001 280.101 -281.861 280.381 C -281.721 280.661 -281.537 280.898 -281.311 281.091 C -281.084 281.284 -280.824 281.438 -280.531 281.551 C -280.237 281.671 -279.941 281.771 -279.641 281.851 C -279.334 281.931 -279.034 281.998 -278.741 282.051 C -278.447 282.104 -278.187 282.164 -277.961 282.231 C -277.734 282.298 -277.551 282.374 -277.411 282.461 C -277.271 282.548 -277.201 282.668 -277.201 282.821 C -277.201 282.948 -277.237 283.048 -277.311 283.121 C -277.391 283.194 -277.487 283.251 -277.601 283.291 C -277.714 283.324 -277.841 283.344 -277.981 283.351 C -278.114 283.364 -278.244 283.371 -278.371 283.371 C -278.571 283.371 -278.754 283.358 -278.921 283.331 C -279.081 283.304 -279.221 283.254 -279.341 283.181 C -279.454 283.101 -279.541 282.994 -279.601 282.861 C -279.667 282.728 -279.701 282.551 -279.701 282.331 L -282.201 282.331 C -282.201 282.911 -282.097 283.394 -281.891 283.781 C -281.684 284.161 -281.401 284.461 -281.041 284.681 C -280.674 284.901 -280.241 285.054 -279.741 285.141 C -279.241 285.228 -278.704 285.271 -278.131 285.271 C -277.611 285.271 -277.127 285.218 -276.681 285.111 C -276.241 284.998 -275.857 284.828 -275.531 284.601 C -275.204 284.368 -274.947 284.068 -274.761 283.701 C -274.581 283.334 -274.491 282.894 -274.491 282.381 C -274.497 282.001 -274.571 281.678 -274.711 281.411 C -274.857 281.151 -275.044 280.931 -275.271 280.751 C -275.504 280.571 -275.764 280.428 -276.051 280.321 C -276.344 280.208 -276.644 280.114 -276.951 280.041 C -277.251 279.968 -277.544 279.904 -277.831 279.851 C -278.124 279.798 -278.384 279.738 -278.611 279.671 C -278.837 279.611 -279.017 279.534 -279.151 279.441 C -279.291 279.348 -279.361 279.221 -279.361 279.061 C -279.361 278.914 -279.271 278.788 -279.091 278.681 C -278.911 278.574 -278.637 278.521 -278.271 278.521 C -278.077 278.521 -277.914 278.544 -277.781 278.591 C -277.647 278.638 -277.537 278.701 -277.451 278.781 C -277.364 278.861 -277.301 278.951 -277.261 279.051 C -277.221 279.151 -277.201 279.254 -277.201 279.361 L -277.201 279.411 L -274.721 279.411 L -274.721 279.271 C -274.727 278.824 -274.827 278.441 -275.021 278.121 C -275.214 277.801 -275.477 277.538 -275.811 277.331 C -276.137 277.124 -276.521 276.971 -276.961 276.871 C -277.401 276.771 -277.871 276.721 -278.371 276.721 ZM -265.36 285.121 L -265.36 283.141 L -269.93 283.141 L -269.93 281.881 L -266.09 281.881 L -266.09 279.981 L -269.93 279.981 L -269.93 278.841 L -265.44 278.841 L -265.44 276.861 L -272.58 276.861 L -272.58 285.121 L -265.36 285.121 Z" transform="matrix(1, 0, 0, 1, 0, 0)" style="fill: rgb(255, 255, 255); white-space: pre;"/>
</svg>