<?xml version="1.0" encoding="utf-8"?>
<svg id="Layer_1" x="0px" y="0px" viewBox="-341.5 276.4 202.2 8.8" xmlns="http://www.w3.org/2000/svg">
  <defs>
    <style id="bx-google-fonts">@import url(https://fonts.googleapis.com/css?family=Alef:400,700);</style>
  </defs>
  <g>
    <path fill="#FFFFFF" d="M-254,276.5v5.5c0,1-0.3,1.7-0.9,2.3c-0.6,0.6-1.4,0.8-2.4,0.8c-1,0-1.8-0.3-2.4-0.8&#10;&#9;&#9;c-0.6-0.6-0.8-1.3-0.8-2.3v-5.5h1v5.6c0,0.7,0.2,1.3,0.6,1.6c0.4,0.4,1,0.6,1.7,0.6c0.7,0,1.3-0.2,1.7-0.6c0.4-0.4,0.6-0.9,0.6-1.7&#10;&#9;&#9;v-5.6H-254z"/>
    <path fill="#FFFFFF" d="M-245,285.1h-1.1l-4.7-7.2h0c0.1,0.8,0.1,1.6,0.1,2.3v4.9h-0.9v-8.6h1.1l4.7,7.2h0c0-0.1,0-0.4-0.1-1&#10;&#9;&#9;s0-1,0-1.2v-4.9h0.9V285.1z"/>
    <path fill="#FFFFFF" d="M-242.6,285.1v-8.6h1v8.6H-242.6z"/>
    <path fill="#FFFFFF" d="M-238.3,285.1h-1v-8.6h4.8v0.9h-3.8v3.1h3.6v0.9h-3.6V285.1z"/>
    <path fill="#FFFFFF" d="M-233.1,285.1v-8.6h1v8.6H-233.1z"/>
    <path fill="#FFFFFF" d="M-225,285.1h-4.8v-8.6h4.8v0.9h-3.8v2.8h3.6v0.9h-3.6v3.2h3.8V285.1z"/>
    <path fill="#FFFFFF" d="M-216.2,280.8c0,1.4-0.4,2.5-1.2,3.2c-0.8,0.7-1.9,1.1-3.3,1.1h-2.4v-8.6h2.6c1.3,0,2.4,0.4,3.1,1.1&#10;&#9;&#9;C-216.6,278.4-216.2,279.4-216.2,280.8z M-217.3,280.8c0-1.1-0.3-2-0.8-2.5c-0.6-0.6-1.4-0.9-2.5-0.9h-1.4v6.8h1.2&#10;&#9;&#9;c1.2,0,2.1-0.3,2.7-0.9C-217.6,282.8-217.3,281.9-217.3,280.8z"/>
    <path fill="#FFFFFF" d="M-208.9,279c0,0.9-0.3,1.5-0.9,2s-1.4,0.7-2.5,0.7h-1v3.4h-1v-8.6h2.2C-210,276.5-208.9,277.4-208.9,279z&#10;&#9;&#9; M-213.3,280.9h0.9c0.9,0,1.5-0.1,1.9-0.4c0.4-0.3,0.6-0.7,0.6-1.4c0-0.6-0.2-1-0.6-1.3c-0.4-0.3-0.9-0.4-1.7-0.4h-1.1&#10;&#9;&#9;L-213.3,280.9L-213.3,280.9z"/>
    <path fill="#FFFFFF" d="M-200.6,276.5v5.5c0,1-0.3,1.7-0.9,2.3c-0.6,0.6-1.4,0.8-2.4,0.8s-1.8-0.3-2.4-0.8&#10;&#9;&#9;c-0.6-0.6-0.8-1.3-0.8-2.3v-5.5h1v5.6c0,0.7,0.2,1.3,0.6,1.6c0.4,0.4,1,0.6,1.7,0.6c0.7,0,1.3-0.2,1.7-0.6c0.4-0.4,0.6-0.9,0.6-1.7&#10;&#9;&#9;v-5.6H-200.6z"/>
    <path fill="#FFFFFF" d="M-193.5,282.8c0,0.8-0.3,1.3-0.8,1.8s-1.3,0.6-2.2,0.6c-1,0-1.8-0.1-2.3-0.4v-1c0.4,0.1,0.7,0.3,1.1,0.4&#10;&#9;&#9;s0.8,0.1,1.2,0.1c0.7,0,1.2-0.1,1.5-0.4s0.5-0.6,0.5-1.1c0-0.3-0.1-0.5-0.2-0.7s-0.3-0.4-0.6-0.5s-0.7-0.3-1.3-0.5&#10;&#9;&#9;c-0.8-0.3-1.4-0.6-1.7-1c-0.3-0.4-0.5-0.9-0.5-1.5c0-0.7,0.2-1.2,0.7-1.6c0.5-0.4,1.2-0.6,2-0.6c0.9,0,1.6,0.2,2.4,0.5l-0.3,0.9&#10;&#9;&#9;c-0.7-0.3-1.4-0.4-2.1-0.4c-0.5,0-0.9,0.1-1.2,0.3s-0.4,0.5-0.4,0.9c0,0.3,0.1,0.5,0.2,0.7s0.3,0.4,0.6,0.5&#10;&#9;&#9;c0.3,0.2,0.7,0.3,1.2,0.5c0.9,0.3,1.5,0.7,1.9,1C-193.7,281.8-193.5,282.2-193.5,282.8z"/>
    <path fill="#FFFFFF" d="M-185.3,285.1h-1v-4h-4.5v4h-1v-8.6h1v3.6h4.5v-3.6h1V285.1z"/>
    <path fill="#FFFFFF" d="M-175,282.8c0,0.8-0.3,1.3-0.8,1.8s-1.3,0.6-2.2,0.6c-1,0-1.8-0.1-2.3-0.4v-1c0.4,0.1,0.7,0.3,1.1,0.4&#10;&#9;&#9;s0.8,0.1,1.2,0.1c0.7,0,1.2-0.1,1.5-0.4s0.5-0.6,0.5-1.1c0-0.3-0.1-0.5-0.2-0.7s-0.3-0.4-0.6-0.5s-0.7-0.3-1.3-0.5&#10;&#9;&#9;c-0.8-0.3-1.4-0.6-1.7-1c-0.3-0.4-0.5-0.9-0.5-1.5c0-0.7,0.2-1.2,0.7-1.6c0.5-0.4,1.2-0.6,2-0.6c0.9,0,1.6,0.2,2.4,0.5l-0.3,0.9&#10;&#9;&#9;c-0.7-0.3-1.4-0.4-2.1-0.4c-0.5,0-0.9,0.1-1.2,0.3s-0.4,0.5-0.4,0.9c0,0.3,0.1,0.5,0.2,0.7s0.3,0.4,0.6,0.5&#10;&#9;&#9;c0.3,0.2,0.7,0.3,1.2,0.5c0.9,0.3,1.5,0.7,1.9,1C-175.1,281.8-175,282.2-175,282.8z"/>
    <path fill="#FFFFFF" d="M-168.5,285.1h-4.8v-8.6h4.8v0.9h-3.8v2.8h3.6v0.9h-3.6v3.2h3.8V285.1z"/>
    <path fill="#FFFFFF" d="M-165.6,281.6v3.6h-1v-8.6h2.4c1.1,0,1.8,0.2,2.3,0.6c0.5,0.4,0.8,1,0.8,1.8c0,1.1-0.6,1.9-1.7,2.3l2.3,3.9&#10;&#9;&#9;h-1.2l-2.1-3.6L-165.6,281.6L-165.6,281.6z M-165.6,280.7h1.4c0.7,0,1.2-0.1,1.5-0.4c0.3-0.3,0.5-0.7,0.5-1.3c0-0.6-0.2-1-0.5-1.2&#10;&#9;&#9;s-0.9-0.4-1.6-0.4h-1.3L-165.6,280.7L-165.6,280.7z"/>
    <path fill="#FFFFFF" d="M-154.2,276.5h1.1l-3.1,8.6h-1l-3.1-8.6h1.1l2,5.5c0.2,0.6,0.4,1.3,0.5,1.9c0.1-0.6,0.3-1.3,0.6-1.9&#10;&#9;&#9;L-154.2,276.5z"/>
    <path fill="#FFFFFF" d="M-147.2,285.1h-4.8v-8.6h4.8v0.9h-3.8v2.8h3.6v0.9h-3.6v3.2h3.8V285.1z"/>
    <path fill="#FFFFFF" d="M-144.3,281.6v3.6h-1v-8.6h2.4c1.1,0,1.8,0.2,2.3,0.6c0.5,0.4,0.8,1,0.8,1.8c0,1.1-0.6,1.9-1.7,2.3l2.3,3.9&#10;&#9;&#9;h-1.2l-2.1-3.6L-144.3,281.6L-144.3,281.6z M-144.3,280.7h1.4c0.7,0,1.2-0.1,1.5-0.4c0.3-0.3,0.5-0.7,0.5-1.3c0-0.6-0.2-1-0.5-1.2&#10;&#9;&#9;s-0.9-0.4-1.6-0.4h-1.3L-144.3,280.7L-144.3,280.7z"/>
  </g>
  <text x="-279.996" y="247.89" transform="matrix(1.094139, 0, 0, 1.000001, -35.717506, 37.295658)" style="fill: rgb(255, 255, 255); font-family: Alef; font-weight: bold; white-space: pre;">AEROBASE</text>
</svg>