<?xml version="1.0" encoding="utf-8"?>
<!-- Generator: Adobe Illustrator 18.1.1, SVG Export Plug-In . SVG Version: 6.00 Build 0)  -->
<svg version="1.1" id="Layer_1" xmlns="http://www.w3.org/2000/svg" xmlns:xlink="http://www.w3.org/1999/xlink" x="0px" y="0px"
	 viewBox="-341.5 276.4 202.2 8.8" enable-background="new -341.5 276.4 202.2 8.8" xml:space="preserve">
<g>
	<path fill="#FFFFFF" d="M-335.3,285.1l-0.4-1.6h-2.8l-0.4,1.6h-2.5l2.8-8.6h3.1l2.8,8.6H-335.3z M-336.2,281.6l-0.4-1.4
		c-0.1-0.3-0.2-0.7-0.3-1.2c-0.1-0.5-0.2-0.9-0.2-1.1c0,0.2-0.1,0.5-0.2,1s-0.3,1.4-0.7,2.7H-336.2z"/>
	<path fill="#FFFFFF" d="M-325.4,285.1h-5.1v-8.6h5.1v1.9h-2.8v1.3h2.6v1.9h-2.6v1.6h2.8V285.1z"/>
	<path fill="#FFFFFF" d="M-320.1,282v3.1h-2.3v-8.6h2.8c2.3,0,3.5,0.8,3.5,2.5c0,1-0.5,1.8-1.5,2.3l2.5,3.7h-2.6l-1.8-3.1
		C-319.5,282-320.1,282-320.1,282z M-320.1,280.3h0.4c0.8,0,1.2-0.4,1.2-1.1c0-0.6-0.4-0.9-1.2-0.9h-0.5L-320.1,280.3L-320.1,280.3z
		"/>
	<path fill="#FFFFFF" d="M-304.8,280.8c0,1.4-0.4,2.5-1.1,3.3s-1.7,1.1-3.1,1.1c-1.3,0-2.4-0.4-3.1-1.1c-0.7-0.8-1.1-1.9-1.1-3.3
		c0-1.4,0.4-2.5,1.1-3.3c0.7-0.8,1.7-1.1,3.1-1.1c1.4,0,2.4,0.4,3.1,1.1C-305.2,278.3-304.8,279.4-304.8,280.8z M-310.7,280.8
		c0,1.7,0.6,2.5,1.7,2.5c0.6,0,1-0.2,1.3-0.6c0.3-0.4,0.4-1,0.4-1.9c0-0.9-0.1-1.5-0.4-1.9s-0.7-0.6-1.3-0.6
		C-310.2,278.3-310.7,279.1-310.7,280.8z"/>
	<path fill="#FFFFFF" d="M-298.4,280.1h3.7v4.6c-1,0.3-2.1,0.5-3.3,0.5c-1.3,0-2.3-0.4-3.1-1.1c-0.7-0.8-1.1-1.9-1.1-3.3
		c0-1.4,0.4-2.5,1.2-3.2s1.9-1.2,3.3-1.2c0.5,0,1,0.1,1.5,0.2c0.5,0.1,0.9,0.2,1.3,0.4l-0.7,1.8c-0.6-0.3-1.3-0.5-2-0.5
		c-0.7,0-1.2,0.2-1.6,0.7c-0.4,0.4-0.6,1.1-0.6,1.9c0,0.8,0.2,1.4,0.5,1.8c0.3,0.4,0.8,0.6,1.4,0.6c0.3,0,0.7,0,0.9-0.1v-1.3h-1.5
		L-298.4,280.1L-298.4,280.1z"/>
	<path fill="#FFFFFF" d="M-286.4,285.1h-5.1v-8.6h5.1v1.9h-2.8v1.3h2.6v1.9h-2.6v1.6h2.8C-286.4,283.2-286.4,285.1-286.4,285.1z"/>
	<path fill="#FFFFFF" d="M-278.2,285.1l-0.4-1.6h-2.8l-0.4,1.6h-2.5l2.8-8.6h3.1l2.8,8.6H-278.2z M-279.1,281.6l-0.4-1.4
		c-0.1-0.3-0.2-0.7-0.3-1.2c-0.1-0.5-0.2-0.9-0.2-1.1c0,0.2-0.1,0.5-0.2,1s-0.3,1.4-0.7,2.7H-279.1z"/>
	<path fill="#FFFFFF" d="M-271,282v3.1h-2.3v-8.6h2.8c2.3,0,3.5,0.8,3.5,2.5c0,1-0.5,1.8-1.5,2.3l2.5,3.7h-2.6l-1.8-3.1H-271z
		 M-271,280.3h0.4c0.8,0,1.2-0.4,1.2-1.1c0-0.6-0.4-0.9-1.2-0.9h-0.5L-271,280.3L-271,280.3z"/>
	<path fill="#FFFFFF" d="M-254,276.5v5.5c0,1-0.3,1.7-0.9,2.3c-0.6,0.6-1.4,0.8-2.4,0.8c-1,0-1.8-0.3-2.4-0.8
		c-0.6-0.6-0.8-1.3-0.8-2.3v-5.5h1v5.6c0,0.7,0.2,1.3,0.6,1.6c0.4,0.4,1,0.6,1.7,0.6c0.7,0,1.3-0.2,1.7-0.6c0.4-0.4,0.6-0.9,0.6-1.7
		v-5.6H-254z"/>
	<path fill="#FFFFFF" d="M-245,285.1h-1.1l-4.7-7.2h0c0.1,0.8,0.1,1.6,0.1,2.3v4.9h-0.9v-8.6h1.1l4.7,7.2h0c0-0.1,0-0.4-0.1-1
		s0-1,0-1.2v-4.9h0.9V285.1z"/>
	<path fill="#FFFFFF" d="M-242.6,285.1v-8.6h1v8.6H-242.6z"/>
	<path fill="#FFFFFF" d="M-238.3,285.1h-1v-8.6h4.8v0.9h-3.8v3.1h3.6v0.9h-3.6V285.1z"/>
	<path fill="#FFFFFF" d="M-233.1,285.1v-8.6h1v8.6H-233.1z"/>
	<path fill="#FFFFFF" d="M-225,285.1h-4.8v-8.6h4.8v0.9h-3.8v2.8h3.6v0.9h-3.6v3.2h3.8V285.1z"/>
	<path fill="#FFFFFF" d="M-216.2,280.8c0,1.4-0.4,2.5-1.2,3.2c-0.8,0.7-1.9,1.1-3.3,1.1h-2.4v-8.6h2.6c1.3,0,2.4,0.4,3.1,1.1
		C-216.6,278.4-216.2,279.4-216.2,280.8z M-217.3,280.8c0-1.1-0.3-2-0.8-2.5c-0.6-0.6-1.4-0.9-2.5-0.9h-1.4v6.8h1.2
		c1.2,0,2.1-0.3,2.7-0.9C-217.6,282.8-217.3,281.9-217.3,280.8z"/>
	<path fill="#FFFFFF" d="M-208.9,279c0,0.9-0.3,1.5-0.9,2s-1.4,0.7-2.5,0.7h-1v3.4h-1v-8.6h2.2C-210,276.5-208.9,277.4-208.9,279z
		 M-213.3,280.9h0.9c0.9,0,1.5-0.1,1.9-0.4c0.4-0.3,0.6-0.7,0.6-1.4c0-0.6-0.2-1-0.6-1.3c-0.4-0.3-0.9-0.4-1.7-0.4h-1.1
		L-213.3,280.9L-213.3,280.9z"/>
	<path fill="#FFFFFF" d="M-200.6,276.5v5.5c0,1-0.3,1.7-0.9,2.3c-0.6,0.6-1.4,0.8-2.4,0.8s-1.8-0.3-2.4-0.8
		c-0.6-0.6-0.8-1.3-0.8-2.3v-5.5h1v5.6c0,0.7,0.2,1.3,0.6,1.6c0.4,0.4,1,0.6,1.7,0.6c0.7,0,1.3-0.2,1.7-0.6c0.4-0.4,0.6-0.9,0.6-1.7
		v-5.6H-200.6z"/>
	<path fill="#FFFFFF" d="M-193.5,282.8c0,0.8-0.3,1.3-0.8,1.8s-1.3,0.6-2.2,0.6c-1,0-1.8-0.1-2.3-0.4v-1c0.4,0.1,0.7,0.3,1.1,0.4
		s0.8,0.1,1.2,0.1c0.7,0,1.2-0.1,1.5-0.4s0.5-0.6,0.5-1.1c0-0.3-0.1-0.5-0.2-0.7s-0.3-0.4-0.6-0.5s-0.7-0.3-1.3-0.5
		c-0.8-0.3-1.4-0.6-1.7-1c-0.3-0.4-0.5-0.9-0.5-1.5c0-0.7,0.2-1.2,0.7-1.6c0.5-0.4,1.2-0.6,2-0.6c0.9,0,1.6,0.2,2.4,0.5l-0.3,0.9
		c-0.7-0.3-1.4-0.4-2.1-0.4c-0.5,0-0.9,0.1-1.2,0.3s-0.4,0.5-0.4,0.9c0,0.3,0.1,0.5,0.2,0.7s0.3,0.4,0.6,0.5
		c0.3,0.2,0.7,0.3,1.2,0.5c0.9,0.3,1.5,0.7,1.9,1C-193.7,281.8-193.5,282.2-193.5,282.8z"/>
	<path fill="#FFFFFF" d="M-185.3,285.1h-1v-4h-4.5v4h-1v-8.6h1v3.6h4.5v-3.6h1V285.1z"/>
	<path fill="#FFFFFF" d="M-175,282.8c0,0.8-0.3,1.3-0.8,1.8s-1.3,0.6-2.2,0.6c-1,0-1.8-0.1-2.3-0.4v-1c0.4,0.1,0.7,0.3,1.1,0.4
		s0.8,0.1,1.2,0.1c0.7,0,1.2-0.1,1.5-0.4s0.5-0.6,0.5-1.1c0-0.3-0.1-0.5-0.2-0.7s-0.3-0.4-0.6-0.5s-0.7-0.3-1.3-0.5
		c-0.8-0.3-1.4-0.6-1.7-1c-0.3-0.4-0.5-0.9-0.5-1.5c0-0.7,0.2-1.2,0.7-1.6c0.5-0.4,1.2-0.6,2-0.6c0.9,0,1.6,0.2,2.4,0.5l-0.3,0.9
		c-0.7-0.3-1.4-0.4-2.1-0.4c-0.5,0-0.9,0.1-1.2,0.3s-0.4,0.5-0.4,0.9c0,0.3,0.1,0.5,0.2,0.7s0.3,0.4,0.6,0.5
		c0.3,0.2,0.7,0.3,1.2,0.5c0.9,0.3,1.5,0.7,1.9,1C-175.1,281.8-175,282.2-175,282.8z"/>
	<path fill="#FFFFFF" d="M-168.5,285.1h-4.8v-8.6h4.8v0.9h-3.8v2.8h3.6v0.9h-3.6v3.2h3.8V285.1z"/>
	<path fill="#FFFFFF" d="M-165.6,281.6v3.6h-1v-8.6h2.4c1.1,0,1.8,0.2,2.3,0.6c0.5,0.4,0.8,1,0.8,1.8c0,1.1-0.6,1.9-1.7,2.3l2.3,3.9
		h-1.2l-2.1-3.6L-165.6,281.6L-165.6,281.6z M-165.6,280.7h1.4c0.7,0,1.2-0.1,1.5-0.4c0.3-0.3,0.5-0.7,0.5-1.3c0-0.6-0.2-1-0.5-1.2
		s-0.9-0.4-1.6-0.4h-1.3L-165.6,280.7L-165.6,280.7z"/>
	<path fill="#FFFFFF" d="M-154.2,276.5h1.1l-3.1,8.6h-1l-3.1-8.6h1.1l2,5.5c0.2,0.6,0.4,1.3,0.5,1.9c0.1-0.6,0.3-1.3,0.6-1.9
		L-154.2,276.5z"/>
	<path fill="#FFFFFF" d="M-147.2,285.1h-4.8v-8.6h4.8v0.9h-3.8v2.8h3.6v0.9h-3.6v3.2h3.8V285.1z"/>
	<path fill="#FFFFFF" d="M-144.3,281.6v3.6h-1v-8.6h2.4c1.1,0,1.8,0.2,2.3,0.6c0.5,0.4,0.8,1,0.8,1.8c0,1.1-0.6,1.9-1.7,2.3l2.3,3.9
		h-1.2l-2.1-3.6L-144.3,281.6L-144.3,281.6z M-144.3,280.7h1.4c0.7,0,1.2-0.1,1.5-0.4c0.3-0.3,0.5-0.7,0.5-1.3c0-0.6-0.2-1-0.5-1.2
		s-0.9-0.4-1.6-0.4h-1.3L-144.3,280.7L-144.3,280.7z"/>
</g>
</svg>
