<?xml version="1.0" encoding="utf-8"?>
<!-- Generator: Adobe Illustrator 16.0.0, SVG Export Plug-In . SVG Version: 6.00 Build 0)  -->
<!DOCTYPE svg PUBLIC "-//W3C//DTD SVG 1.1//EN" "http://www.w3.org/Graphics/SVG/1.1/DTD/svg11.dtd">
<svg version="1.1" id="Layer_1" xmlns="http://www.w3.org/2000/svg" xmlns:xlink="http://www.w3.org/1999/xlink" x="0px" y="0px"
	 width="270px" height="10px" viewBox="0 0 270 10" enable-background="new 0 0 270 10" xml:space="preserve">
<g>
	<path fill="#FFFFFF" d="M8.662,9.115L8.24,7.51H5.457L5.023,9.115H2.48l2.795-8.602h3.088l2.83,8.602H8.662z M7.759,5.611
		L7.39,4.205C7.304,3.893,7.2,3.488,7.077,2.992S6.873,2.141,6.833,1.926C6.798,2.125,6.729,2.453,6.625,2.91
		S6.292,4.268,5.937,5.611H7.759z"/>
	<path fill="#FFFFFF" d="M18.645,9.115h-5.086V0.549h5.086v1.857h-2.771v1.348h2.566v1.857h-2.566v1.617h2.771V9.115z"/>
	<path fill="#FFFFFF" d="M23.899,5.998v3.117h-2.314V0.549h2.807c2.328,0,3.492,0.844,3.492,2.531c0,0.992-0.484,1.76-1.453,2.303
		l2.496,3.732h-2.625l-1.816-3.117H23.899z M23.899,4.258h0.434c0.809,0,1.213-0.357,1.213-1.072c0-0.59-0.396-0.885-1.189-0.885
		h-0.457V4.258z"/>
	<path fill="#FFFFFF" d="M39.161,4.82c0,1.441-0.354,2.537-1.061,3.287s-1.742,1.125-3.105,1.125c-1.344,0-2.374-0.377-3.091-1.131
		s-1.075-1.852-1.075-3.293c0-1.426,0.356-2.515,1.069-3.267s1.749-1.128,3.108-1.128c1.363,0,2.396,0.373,3.1,1.119
		S39.161,3.375,39.161,4.82z M33.267,4.82c0,1.656,0.576,2.484,1.729,2.484c0.586,0,1.021-0.201,1.304-0.604
		s0.425-1.029,0.425-1.881c0-0.855-0.144-1.487-0.431-1.896s-0.716-0.612-1.286-0.612C33.847,2.312,33.267,3.148,33.267,4.82z"/>
	<path fill="#FFFFFF" d="M45.587,4.1h3.697v4.617c-1.004,0.344-2.107,0.516-3.311,0.516c-1.32,0-2.341-0.383-3.062-1.148
		s-1.081-1.857-1.081-3.275c0-1.383,0.395-2.459,1.184-3.229s1.895-1.154,3.316-1.154c0.539,0,1.048,0.051,1.526,0.152
		s0.896,0.23,1.251,0.387l-0.732,1.816c-0.617-0.305-1.295-0.457-2.033-0.457c-0.676,0-1.198,0.22-1.567,0.659
		s-0.554,1.067-0.554,1.884c0,0.801,0.167,1.411,0.501,1.831s0.815,0.63,1.444,0.63c0.344,0,0.66-0.033,0.949-0.1V5.887h-1.529V4.1z
		"/>
	<path fill="#FFFFFF" d="M57.557,9.115h-5.086V0.549h5.086v1.857h-2.771v1.348h2.566v1.857h-2.566v1.617h2.771V9.115z"/>
	<path fill="#FFFFFF" d="M65.753,9.115L65.331,7.51h-2.783l-0.434,1.605h-2.543l2.795-8.602h3.088l2.83,8.602H65.753z M64.851,5.611
		l-0.369-1.406c-0.086-0.312-0.19-0.717-0.313-1.213s-0.204-0.852-0.243-1.066C63.89,2.125,63.82,2.453,63.717,2.91
		s-0.333,1.357-0.688,2.701H64.851z"/>
	<path fill="#FFFFFF" d="M72.964,5.998v3.117H70.65V0.549h2.807c2.328,0,3.492,0.844,3.492,2.531c0,0.992-0.484,1.76-1.453,2.303
		l2.496,3.732h-2.625L73.55,5.998H72.964z M72.964,4.258h0.434c0.809,0,1.213-0.357,1.213-1.072c0-0.59-0.396-0.885-1.189-0.885
		h-0.457V4.258z"/>
	<path fill="#FFFFFF" d="M90.049,0.549v5.543c0,0.977-0.295,1.744-0.885,2.303s-1.4,0.838-2.432,0.838s-1.829-0.281-2.394-0.844
		s-0.847-1.336-0.847-2.32v-5.52h0.996v5.59c0,0.715,0.195,1.264,0.586,1.646s0.965,0.574,1.723,0.574
		c0.723,0,1.279-0.192,1.67-0.577s0.586-0.937,0.586-1.655V0.549H90.049z"/>
	<path fill="#FFFFFF" d="M99.008,9.115h-1.137l-4.682-7.189h-0.047c0.062,0.844,0.094,1.617,0.094,2.32v4.869h-0.92V0.549h1.125
		l4.67,7.16h0.047c-0.008-0.105-0.025-0.444-0.053-1.017s-0.037-0.981-0.029-1.228V0.549h0.932V9.115z"/>
	<path fill="#FFFFFF" d="M101.363,9.115V0.549h0.996v8.566H101.363z"/>
	<path fill="#FFFFFF" d="M105.705,9.115h-0.996V0.549h4.776v0.885h-3.78v3.135h3.551v0.885h-3.551V9.115z"/>
	<path fill="#FFFFFF" d="M110.902,9.115V0.549h0.996v8.566H110.902z"/>
	<path fill="#FFFFFF" d="M119.023,9.115h-4.775V0.549h4.775v0.885h-3.779v2.76h3.551v0.879h-3.551v3.152h3.779V9.115z"/>
	<path fill="#FFFFFF" d="M127.759,4.75c0,1.414-0.383,2.495-1.15,3.243s-1.873,1.122-3.314,1.122h-2.373V0.549h2.625
		c1.332,0,2.367,0.369,3.105,1.107S127.759,3.426,127.759,4.75z M126.704,4.785c0-1.117-0.279-1.959-0.84-2.525
		c-0.561-0.566-1.394-0.85-2.5-0.85h-1.447v6.844h1.213c1.188,0,2.08-0.292,2.677-0.876C126.405,6.794,126.704,5.93,126.704,4.785z"
		/>
	<path fill="#FFFFFF" d="M135.101,3.045c0,0.867-0.295,1.534-0.887,2.001s-1.439,0.7-2.541,0.7h-1.008v3.369h-0.996V0.549h2.221
		C134.03,0.549,135.101,1.381,135.101,3.045z M130.665,4.891h0.896c0.883,0,1.521-0.143,1.916-0.428s0.592-0.742,0.592-1.371
		c0-0.566-0.186-0.988-0.557-1.266s-0.949-0.416-1.734-0.416h-1.113V4.891z"/>
	<path fill="#FFFFFF" d="M143.362,0.549v5.543c0,0.977-0.295,1.744-0.885,2.303s-1.4,0.838-2.432,0.838s-1.828-0.281-2.393-0.844
		s-0.848-1.336-0.848-2.32v-5.52h0.996v5.59c0,0.715,0.195,1.264,0.586,1.646s0.965,0.574,1.723,0.574
		c0.723,0,1.279-0.192,1.67-0.577s0.586-0.937,0.586-1.655V0.549H143.362z"/>
	<path fill="#FFFFFF" d="M150.464,6.836c0,0.754-0.273,1.342-0.82,1.764s-1.289,0.633-2.227,0.633c-1.016,0-1.797-0.131-2.344-0.393
		V7.879c0.352,0.148,0.734,0.266,1.148,0.352s0.824,0.129,1.23,0.129c0.664,0,1.164-0.126,1.5-0.378s0.504-0.603,0.504-1.052
		c0-0.297-0.059-0.54-0.178-0.729s-0.318-0.364-0.598-0.524s-0.705-0.342-1.275-0.545c-0.797-0.285-1.365-0.623-1.707-1.014
		s-0.514-0.9-0.514-1.529c0-0.66,0.248-1.186,0.744-1.576s1.152-0.586,1.969-0.586c0.852,0,1.635,0.156,2.35,0.469l-0.311,0.867
		c-0.707-0.297-1.395-0.445-2.062-0.445c-0.527,0-0.939,0.113-1.236,0.34s-0.445,0.541-0.445,0.943c0,0.297,0.055,0.54,0.164,0.729
		s0.295,0.363,0.555,0.521s0.656,0.333,1.191,0.524c0.898,0.32,1.518,0.664,1.855,1.031S150.464,6.25,150.464,6.836z"/>
	<path fill="#FFFFFF" d="M158.72,9.115h-0.996V5.084h-4.512v4.031h-0.996V0.549h0.996v3.645h4.512V0.549h0.996V9.115z"/>
	<path fill="#FFFFFF" d="M169.021,6.836c0,0.754-0.273,1.342-0.82,1.764s-1.289,0.633-2.227,0.633c-1.016,0-1.797-0.131-2.344-0.393
		V7.879c0.352,0.148,0.734,0.266,1.148,0.352s0.824,0.129,1.23,0.129c0.664,0,1.164-0.126,1.5-0.378s0.504-0.603,0.504-1.052
		c0-0.297-0.059-0.54-0.178-0.729s-0.318-0.364-0.598-0.524s-0.705-0.342-1.275-0.545c-0.797-0.285-1.365-0.623-1.707-1.014
		s-0.514-0.9-0.514-1.529c0-0.66,0.248-1.186,0.744-1.576s1.152-0.586,1.969-0.586c0.852,0,1.635,0.156,2.35,0.469l-0.311,0.867
		c-0.707-0.297-1.395-0.445-2.062-0.445c-0.527,0-0.939,0.113-1.236,0.34s-0.445,0.541-0.445,0.943c0,0.297,0.055,0.54,0.164,0.729
		s0.295,0.363,0.555,0.521s0.656,0.333,1.191,0.524c0.898,0.32,1.518,0.664,1.855,1.031S169.021,6.25,169.021,6.836z"/>
	<path fill="#FFFFFF" d="M175.548,9.115h-4.775V0.549h4.775v0.885h-3.779v2.76h3.551v0.879h-3.551v3.152h3.779V9.115z"/>
	<path fill="#FFFFFF" d="M178.442,5.553v3.562h-0.996V0.549h2.35c1.051,0,1.828,0.201,2.33,0.604s0.752,1.008,0.752,1.816
		c0,1.133-0.574,1.898-1.723,2.297l2.326,3.85h-1.178l-2.074-3.562H178.442z M178.442,4.697h1.365c0.703,0,1.219-0.14,1.547-0.419
		s0.492-0.698,0.492-1.257c0-0.566-0.166-0.975-0.5-1.225s-0.871-0.375-1.609-0.375h-1.295V4.697z"/>
	<path fill="#FFFFFF" d="M189.757,0.549h1.072l-3.088,8.566h-0.984l-3.07-8.566h1.055l1.969,5.543
		c0.227,0.637,0.406,1.256,0.539,1.857c0.141-0.633,0.324-1.264,0.551-1.893L189.757,0.549z"/>
	<path fill="#FFFFFF" d="M196.782,9.115h-4.775V0.549h4.775v0.885h-3.779v2.76h3.551v0.879h-3.551v3.152h3.779V9.115z"/>
	<path fill="#FFFFFF" d="M199.677,5.553v3.562h-0.996V0.549h2.35c1.051,0,1.828,0.201,2.33,0.604s0.752,1.008,0.752,1.816
		c0,1.133-0.574,1.898-1.723,2.297l2.326,3.85h-1.178l-2.074-3.562H199.677z M199.677,4.697h1.365c0.703,0,1.219-0.14,1.547-0.419
		s0.492-0.698,0.492-1.257c0-0.566-0.166-0.975-0.5-1.225s-0.871-0.375-1.609-0.375h-1.295V4.697z"/>
</g>
</svg>
