<svg width="256" height="245" viewBox="0 0 256 245" xmlns="http://www.w3.org/2000/svg" preserveAspectRatio="xMidYMid"><path d="M232.727 244.364h-41.454l2.909-34.91h-20.364l-2.909 34.91H85.091l-2.91-34.91H61.819l2.91 34.91H23.272L0 93.09 58.182 0h139.636L256 93.09l-23.273 151.274zM186.182 46.545h-37.403L151.273 64h-46.546l2.494-17.455H69.818L46.545 93.091l11.637 93.09h139.636l11.637-93.09-23.273-46.546zm-20.364 108.742c-3.213 0-5.818-9.69-5.818-21.643 0-11.954 2.605-21.644 5.818-21.644 3.213 0 5.818 9.69 5.818 21.644 0 11.953-2.605 21.643-5.818 21.643zm-73.454 1.804c-3.213 0-5.819-9.69-5.819-21.644 0-11.953 2.606-21.643 5.819-21.643s5.818 9.69 5.818 21.643c0 11.954-2.605 21.644-5.818 21.644z" fill="#444"/></svg>