<svg height="512" viewBox="0 0 55 60" width="512" xmlns="http://www.w3.org/2000/svg"><g fill="none"><path d="M44.59 51H3.41a2.005 2.005 0 01-1.45-3.38A18.794 18.794 0 007 36V25A16.991 16.991 0 0117.15 9.44a16.809 16.809 0 018.13-1.39A15 15 0 0038 31a14.819 14.819 0 003-.3V36a18.794 18.794 0 005.04 11.62A2.005 2.005 0 0144.59 51z" fill="#e8edfc"/><path d="M46.04 47.62A18.794 18.794 0 0141 36v-5.3c-.987.202-1.992.302-3 .3v5a18.794 18.794 0 005.04 11.62A2.005 2.005 0 0141.59 51h3a2.005 2.005 0 001.45-3.38zM20 16c.003 8.283 6.717 14.997 15 15 .514 0 1.02-.025 1.519-.075A15 15 0 0125.28 8.05C24.86 8.02 24.43 8 24 8a17.22 17.22 0 00-1.744.091A14.945 14.945 0 0020 16z" fill="#cad9fc"/><path d="M11 48H7a1 1 0 010-2h4a1 1 0 010 2zm30 0H15a1 1 0 010-2h26a1 1 0 010 2z" fill="#e8edfc"/><path d="M11 26a1 1 0 01-1-1 13.94 13.94 0 015.257-10.927 1 1 0 111.251 1.56A11.954 11.954 0 0012 25a1 1 0 01-1 1z" fill="#fff"/><path d="M32 51a8 8 0 11-16 0z" fill="#a4c2f7"/><path d="M29 51a8 8 0 01-6.5 7.855A7.985 7.985 0 0032 51z" fill="#7facfa"/><path d="M29.48 3.66a15.152 15.152 0 00-4.2 4.39 16.809 16.809 0 00-8.13 1.39 6.992 6.992 0 0112.33-5.78z" fill="#cad9fc"/><path d="M24 1a7.039 7.039 0 00-1.5.166 6.932 6.932 0 013.98 2.494 15.152 15.152 0 00-4.2 4.39C21.86 8.02 21.43 8 21 8c-1.34.004-2.674.166-3.975.484.018.321.06.64.125.956a16.809 16.809 0 018.13-1.39 15.152 15.152 0 014.2-4.39A6.941 6.941 0 0024 1z" fill="#a4c2f7"/><path d="M53 16c-.003 8.283-6.717 14.997-15 15a14.846 14.846 0 01-5.67-1.11l-7.37 2.46a1 1 0 01-1.25-1.29l2.23-6.14A15 15 0 1153 16z" fill="#e8edfc"/><path d="M29.33 29.89l-5.606 1.871a.994.994 0 001.236.589l5.84-1.95c-.499-.144-.99-.314-1.47-.51zM38 1c-.506 0-1.006.027-1.5.076 7.663.774 13.495 7.226 13.492 14.929-.002 7.702-5.837 14.15-13.501 14.92.5.049 1 .075 1.509.075 8.284 0 15-6.716 15-15 0-8.284-6.716-15-15-15z" fill="#cad9fc"/><g fill="#fff" transform="translate(1 1)"><circle cx="29" cy="15" r="2"/><circle cx="37" cy="15" r="2"/><circle cx="45" cy="15" r="2"/></g><path d="M3.41 51h3a2.005 2.005 0 01-1.45-3.38A18.794 18.794 0 0010 36V25A16.991 16.991 0 0120.15 9.44a6.993 6.993 0 015.35-8.274A7.01 7.01 0 0024 1a7.1 7.1 0 00-.762.043h-.024A6.993 6.993 0 0017.15 9.44 16.991 16.991 0 007 25v11a18.794 18.794 0 01-5.04 11.62A2.005 2.005 0 003.41 51z" fill="#fff"/><path d="M7.968 16.841l1.782.909A16.3 16.3 0 008 25H6c.016-2.835.69-5.628 1.968-8.159z" fill="#fff"/><g fill="#428dff"><path d="M7.5 22.03a1 1 0 01-.011-2H7.5a1 1 0 010 2z"/><path d="M3.41 52h11.649a9 9 0 0017.882 0H44.59a2.946 2.946 0 002.73-1.77 3.016 3.016 0 00-.542-3.285A18 18 0 0142 36v-4.527A15.986 15.986 0 1029.671 2.365 7.914 7.914 0 0024 0a7.994 7.994 0 00-7.952 8.869c-.497.241-.98.508-1.449.8a19.81 19.81 0 00-2.023 1.42 19.875 19.875 0 00-1.785 1.711 17.472 17.472 0 00-2.823 4.042.979.979 0 00.457 1.355c.49.223 1.07.028 1.325-.446a15.452 15.452 0 012.51-3.594 17.8 17.8 0 011.586-1.521 17.883 17.883 0 011.8-1.261 16 16 0 017.981-2.357 15.919 15.919 0 001.193 16.056l-2.048 5.637a2 2 0 002.504 2.59l7.024-2.347a15.615 15.615 0 007.7.907V36a19.667 19.667 0 005.3 12.292c.286.303.361.749.191 1.129a.95.95 0 01-.9.579H3.41a.95.95 0 01-.9-.579A1.029 1.029 0 012.7 48.3 19.673 19.673 0 008 36V25a1 1 0 00-2 0v11a17.867 17.867 0 01-4.78 10.948 3.013 3.013 0 00-.54 3.282A2.946 2.946 0 003.41 52zM18 8a6.006 6.006 0 016-6 5.924 5.924 0 013.991 1.537 16.1 16.1 0 00-3.231 3.492C24.506 7.018 24.255 7 24 7a18.977 18.977 0 00-6 1.039V8zm14.71 20.965a1.01 1.01 0 00-.7-.024L24.65 31.4l2.23-6.14a1 1 0 00-.137-.938A13.844 13.844 0 0124 16c0-7.732 6.268-14 14-14s14 6.268 14 14-6.268 14-14 14a13.834 13.834 0 01-5.29-1.035zM24 52h6.929a7 7 0 01-13.858 0z"/><path d="M6 47a1 1 0 001 1h4a1 1 0 000-2H7a1 1 0 00-1 1zm8 0a1 1 0 001 1h26a1 1 0 000-2H15a1 1 0 00-1 1zm1.257-32.927A13.94 13.94 0 0010 25a1 1 0 002 0 11.954 11.954 0 014.508-9.367 1 1 0 10-1.251-1.56zM30 13a3 3 0 100 6 3 3 0 000-6zm0 4a1 1 0 110-2 1 1 0 010 2zm8-4a3 3 0 100 6 3 3 0 000-6zm0 4a1 1 0 110-2 1 1 0 010 2zm11-1a3 3 0 10-6 0 3 3 0 006 0zm-3 1a1 1 0 110-2 1 1 0 010 2z"/></g></g></svg>