<svg xmlns="http://www.w3.org/2000/svg" viewBox="0 0 514.4 514.4"><path d="M49.6 293.6h16v16h-16zm0 47.2h16v16h-16zm0 48h16v16h-16z" fill="#193651"/><path d="M179.2 311.2c-1.6 16.8 0 34.4 4 51.2L152 385.6l23.2 44.8 36.8-12c11.2 13.6 24.8 24.8 39.2 33.6l-5.6 37.6 48 15.2 17.6-34.4c16.8 1.6 34.4 0 51.2-4l23.2 31.2 44.8-23.2-12-36.8c13.6-11.2 24.8-24.8 32.8-39.2l38.4 5.6 15.2-48-34.4-18.4c1.6-16.8 0-34.4-4-51.2l31.2-23.2-24-44.8-36.8 12c-11.2-13.6-24.8-24.8-39.2-33.6l5.6-38.4-48-15.2-17.6 35.2c-16.8-1.6-34.4 0-51.2 4l-23.2-31.2-44.8 23.2 12 36.8c-13.6 11.2-24.8 24.8-32.8 39.2l-38.4-5.6-15.2 48 35.2 18.4z" fill="#fff"/><circle cx="324.21" cy="324.75" fill="#fdbf5e" r="116"/><g fill="#193651"><path d="M292.8 366.4h-12v-59.2c0-10.4-8-18.4-18.4-18.4s-18.4 8-18.4 18.4v59.2h-12v-59.2c0-16.8 13.6-30.4 30.4-30.4s30.4 13.6 30.4 30.4v59.2zm28 0h-12v-89.6h32c12.8 0 23.2 10.4 23.2 23.2v10.4c0 12.8-10.4 23.2-23.2 23.2h-20v32.8zm0-44.8h20c6.4 0 11.2-4.8 11.2-11.2V300c0-6.4-4.8-11.2-11.2-11.2h-20v32.8zm90.4-32.8v-12H376v12h12V360h-12v12h35.2v-12H400v-71.2z"/><path d="M237.6 316h48.8v12h-48.8z"/></g><path d="M276.8 85.6v-2.4c0-40.8-33.6-74.4-74.4-74.4-28 0-52 15.2-64.8 37.6-8.8-8-20.8-12.8-34.4-12.8-28.8 0-52.8 24-52.8 52.8v.8C25.6 96.8 8 121.6 8 150.4c0 37.6 30.4 67.2 67.2 67.2h182.4c37.6 0 67.2-30.4 67.2-67.2 1.6-30.4-19.2-56.8-48-64.8z" fill="#fff"/><path d="M478.4 332.8c.8-14.4 0-28.8-4-43.2l32-24-29.6-56.8-38.4 12.8c-9.6-11.2-20.8-20-33.6-28l6.4-40-60.8-19.2-17.6 36h-1.6c1.6-6.4 2.4-12.8 2.4-20 0-31.2-20-60-48.8-70.4C283.2 36 247.2.8 202.4.8c-26.4 0-51.2 12.8-67.2 34.4-9.6-5.6-20.8-8.8-32-8.8-32 0-58.4 24.8-60.8 56C16 95.2 0 120.8 0 150.4c0 41.6 33.6 75.2 75.2 75.2h129.6c-4 5.6-8 10.4-12 16.8l-40-6.4-18.4 61.6 36 17.6c-.8 14.4 0 28.8 4 43.2l-32 24 29.6 56.8 38.4-12.8c9.6 11.2 20.8 20 33.6 28l-6.4 40 60.8 19.2 17.6-36c14.4.8 28.8-.8 43.2-4l24 32L440 476l-12.8-38.4c11.2-9.6 20-20.8 28-33.6l40 6.4 19.2-61.6-36-16zM16.8 150.4c0-24.8 14.4-46.4 37.6-55.2l4.8-3.2v-5.6c0-24.8 20-44.8 44.8-44.8 10.4 0 20.8 4 28.8 10.4l7.2 6.4 5.6-8c12-20.8 33.6-33.6 57.6-33.6 36.8 0 66.4 29.6 66.4 66.4V92l5.6 1.6c25.6 7.2 43.2 31.2 43.2 57.6 0 32.8-26.4 59.2-59.2 59.2H76c-32.8 0-59.2-27.2-59.2-60zm467.2 244l-36.8-5.6-3.2 4.8c-8 14.4-18.4 27.2-31.2 37.6l-4 3.2 12 35.2-32.8 16.8-22.4-30.4-5.6 1.6c-16 4-32 5.6-48.8 4l-5.6-.8-16 34.4-35.2-11.2 5.6-36.8-4.8-2.4c-14.4-8-26.4-18.4-37.6-31.2l-3.2-4-35.2 12-16.8-32.8 30.4-22.4-1.6-5.6c-4-16-5.6-32-4-48.8l.8-5.6-34.4-16.8 11.2-35.2 36.8 5.6 2.4-4.8c6.4-10.4 13.6-20.8 22.4-28.8h31.2c28.8 0 53.6-16 66.4-40 4 0 8 0 12 .8l5.6.8 16.8-33.6 35.2 11.2-4.8 36 4.8 2.4c14.4 8 26.4 18.4 37.6 31.2l3.2 4 35.2-12 16.8 32.8-30.4 22.4 1.6 5.6c4 16 5.6 32 4 48.8l-.8 5.6 33.6 16.8-10.4 35.2z" fill="#193651"/><path fill="#2ea2db" d="M195.2 154.4H236v-40.8l-12 12-48-48.8-16.8 16.8 48.8 48.8z"/><path fill="#f16051" d="M134.4 100.8H93.6v40.8l12.8-12 48 48.8 16.8-16.8-48.8-48.8z"/></svg>